<svg width="15" height="15" viewBox="0 0 15 15" fill="none" xmlns="http://www.w3.org/2000/svg">
  <path d="M4.98 2.82L5.4 2.31C5.66 2 6.11 1.91 6.48 2.1L11.01 4.5C11.06 4.53 11.11 4.56 11.15 4.59C11.53 4.89 11.59 5.44 11.29 5.81L10.2 7.17L12.84 7.83C13.31 7.94 13.59 8.42 13.47 8.88L12.24 13.81C12.21 13.93 12.15 14.04 12.06 14.13C11.79 14.4 11.35 14.4 11.07 14.13C10.53 13.59 10.32 12.81 10.5 12.07L11.07 9.78H9.11C9.25 10.19 9.33 10.63 9.33 11.08C9.33 13.25 7.58 15 5.42 15C3.25 15 1.5 13.25 1.5 11.08C1.5 8.92 3.25 7.17 5.42 7.17C5.64 7.17 5.87 7.19 6.08 7.22L7.59 4.99L6.48 4.44L5.18 6.05C4.8 6.51 4.12 6.58 3.65 6.21C3.18 5.83 3.11 5.14 3.49 4.67L4.98 2.82ZM11.03 3.65C10.02 3.65 9.2 2.83 9.2 1.83C9.2 0.82 10.02 0 11.03 0C12.03 0 12.85 0.82 12.85 1.83C12.85 2.83 12.03 3.65 11.03 3.65ZM5.42 12.82C5.87127 12.8047 6.29894 12.6147 6.61276 12.29C6.92658 11.9654 7.102 11.5315 7.102 11.08C7.102 10.6285 6.92658 10.1946 6.61276 9.86997C6.29894 9.54532 5.87127 9.3553 5.42 9.34C4.96873 9.3553 4.54106 9.54532 4.22724 9.86997C3.91342 10.1946 3.738 10.6285 3.738 11.08C3.738 11.5315 3.91342 11.9654 4.22724 12.29C4.54106 12.6147 4.96873 12.8047 5.42 12.82Z" fill="#22C55E"/>
</svg>
