<?xml version="1.0" standalone="no"?>
<!DOCTYPE svg PUBLIC "-//W3C//DTD SVG 20010904//EN"
 "http://www.w3.org/TR/2001/REC-SVG-20010904/DTD/svg10.dtd">
<svg version="1.0" xmlns="http://www.w3.org/2000/svg"
 width="190.000000pt" height="165.000000pt" viewBox="0 0 190.000000 165.000000"
 preserveAspectRatio="xMidYMid meet">
<g transform="translate(0.000000,165.000000) scale(0.100000,-0.100000)"
fill="#000000" stroke="none">
<path d="M838 1538 c-39 -13 -71 -70 -63 -108 7 -32 51 -80 72 -80 8 0 13 -14
13 -40 l0 -40 -72 1 -73 0 -60 77 -60 77 -225 3 c-123 1 -227 -1 -232 -6 -11
-11 29 -87 64 -123 23 -23 38 -29 71 -29 38 0 42 -2 44 -26 2 -36 32 -75 74
-96 45 -23 159 -25 159 -3 0 12 -14 15 -66 15 -36 0 -75 5 -87 11 -31 16 -57
50 -57 77 0 20 5 22 55 22 42 0 55 3 55 15 0 13 -17 15 -104 13 -117 -3 -125
1 -164 71 l-22 39 208 1 207 2 59 -76 c33 -42 68 -81 77 -86 10 -5 47 -9 83
-9 l66 0 0 -196 0 -196 -37 23 c-66 39 -131 89 -136 104 -4 9 -1 12 7 9 39
-15 104 46 91 86 -17 52 -101 46 -130 -10 -30 -59 15 -126 136 -200 l55 -34
-42 -41 c-54 -51 -65 -98 -37 -152 11 -21 34 -47 51 -58 37 -24 39 -31 12 -40
-30 -10 -71 -70 -76 -112 -6 -46 20 -99 64 -129 l30 -21 -43 -41 c-41 -39 -64
-90 -50 -112 10 -16 25 -1 25 25 0 24 53 95 71 95 5 0 9 -27 9 -61 0 -44 3
-59 13 -56 8 3 12 25 11 66 l-1 61 31 -23 c17 -13 38 -43 46 -66 18 -51 35
-54 27 -3 -5 26 -18 48 -46 74 l-39 37 44 44 c41 41 44 48 44 97 0 49 -3 56
-44 96 l-43 44 43 44 c39 38 44 49 44 87 0 48 -20 85 -63 119 l-28 22 78 52
c124 83 156 156 92 210 -17 14 -38 26 -48 26 -27 0 -61 -29 -61 -54 0 -29 41
-68 74 -70 14 0 26 -3 26 -7 0 -15 -150 -129 -171 -129 -2 0 -3 88 -2 197 l2
196 69 -2 c79 -3 82 -1 161 101 l52 67 204 0 c113 0 205 -2 205 -5 0 -14 -31
-62 -55 -84 -24 -23 -34 -25 -127 -25 -72 0 -102 -4 -105 -12 -4 -10 12 -13
56 -13 67 0 70 -4 46 -55 -21 -42 -51 -55 -130 -55 -51 0 -65 -3 -65 -15 0
-20 107 -21 155 -1 37 16 75 68 75 104 0 19 5 22 38 22 47 0 76 20 113 78 54
85 60 82 -194 82 -164 0 -227 -3 -238 -12 -9 -7 -39 -43 -68 -80 l-53 -68 -72
0 -72 0 4 40 c3 28 10 41 23 45 30 10 59 55 59 91 0 23 -9 43 -27 64 -31 33
-64 42 -105 28z m79 -33 c29 -20 37 -59 19 -94 -25 -48 -73 -55 -111 -16 -14
13 -25 36 -25 50 0 32 41 75 72 75 13 0 33 -7 45 -15z m-160 -440 c8 -22 -25
-55 -54 -55 -31 0 -40 26 -18 50 21 24 63 26 72 5z m303 -5 c24 -24 25 -39 5
-46 -37 -15 -97 28 -80 56 10 17 54 11 75 -10z m-198 -365 c-2 -63 -7 -115
-12 -115 -4 0 -22 16 -39 35 -45 52 -43 93 10 150 23 25 42 45 43 45 0 0 0
-52 -2 -115z m66 71 c17 -19 33 -44 37 -55 10 -33 -13 -87 -48 -114 l-32 -24
0 113 c0 63 3 114 6 114 4 0 20 -15 37 -34z m26 -311 c26 -54 1 -126 -52 -154
-15 -8 -17 2 -17 109 l0 118 26 -19 c15 -10 34 -35 43 -54z m-94 -52 l-1 -118
-39 42 c-53 56 -55 105 -9 158 17 19 35 35 40 35 5 0 9 -53 9 -117z"/>
<path d="M684 1393 c16 -20 36 -23 36 -6 0 4 -3 3 -7 0 -3 -4 -16 1 -27 10
-21 18 -21 18 -2 -4z"/>
<path d="M1054 1396 c-3 -9 -11 -13 -17 -9 -6 4 -7 1 -2 -7 6 -10 11 -9 21 4
9 13 13 14 17 4 4 -9 6 -9 6 -1 1 19 -19 26 -25 9z"/>
<path d="M565 1351 c-3 -5 -2 -12 3 -15 5 -3 9 1 9 9 0 17 -3 19 -12 6z"/>
<path d="M690 1355 c0 -2 6 -8 13 -14 10 -8 14 -7 14 2 0 8 -6 14 -14 14 -7 0
-13 -1 -13 -2z"/>
<path d="M1574 1284 c-18 -14 -18 -15 4 -4 12 6 22 13 22 15 0 8 -5 6 -26 -11z"/>
<path d="M643 899 c-2 -23 3 -25 10 -4 4 8 3 16 -1 19 -4 3 -9 -4 -9 -15z"/>
<path d="M723 596 c-3 -6 -3 -8 2 -4 4 4 13 1 19 -8 10 -13 12 -13 12 4 0 20
-23 26 -33 8z"/>
<path d="M725 479 c-4 -6 -5 -12 -2 -15 2 -3 7 2 10 11 7 17 1 20 -8 4z"/>
<path d="M720 311 c0 -6 4 -13 10 -16 6 -3 7 1 4 9 -7 18 -14 21 -14 7z"/>
<path d="M724 222 c4 -3 14 -7 22 -8 9 -1 13 0 10 4 -4 3 -14 7 -22 8 -9 1
-13 0 -10 -4z"/>
</g>
</svg>
