<?xml version="1.0" standalone="no"?>
<!DOCTYPE svg PUBLIC "-//W3C//DTD SVG 20010904//EN"
 "http://www.w3.org/TR/2001/REC-SVG-20010904/DTD/svg10.dtd">
<svg version="1.0" xmlns="http://www.w3.org/2000/svg"
 width="313.000000pt" height="87.000000pt" viewBox="0 0 313.000000 87.000000"
 preserveAspectRatio="xMidYMid meet">
<g transform="translate(0.000000,87.000000) scale(0.100000,-0.100000)"
fill="#000000" stroke="none">
<path d="M934 755 c-17 -12 -16 -42 2 -89 5 -13 4 -17 -4 -12 -6 3 -13 2 -17
-3 -3 -5 2 -14 10 -19 13 -6 15 -23 13 -79 l-3 -71 -34 12 c-45 14 -55 38 -13
30 39 -8 53 13 23 37 -18 15 -27 16 -52 7 -42 -15 -57 -49 -35 -83 9 -14 24
-25 32 -25 11 0 14 -5 9 -17 -16 -40 -15 -51 9 -79 17 -21 22 -34 15 -45 -14
-23 -10 -48 11 -69 11 -11 15 -22 10 -25 -14 -9 -12 -49 2 -63 21 -21 29 -13
12 13 -16 24 -15 27 1 44 16 18 16 20 -5 31 -28 15 -25 73 5 79 19 3 19 3 3
-16 -10 -11 -18 -25 -18 -31 0 -15 57 -45 70 -37 6 3 10 1 10 -5 0 -8 6 -8 20
0 24 13 35 52 22 76 -8 14 -5 23 15 42 25 23 27 41 8 85 -5 12 -3 17 7 17 21
0 48 33 48 57 0 44 -81 73 -110 38 -19 -23 -2 -38 36 -30 28 5 33 3 28 -10 -3
-8 -10 -16 -15 -16 -5 -1 -13 -2 -18 -3 -5 0 -13 -4 -17 -8 -4 -5 -13 -8 -21
-8 -10 0 -13 19 -13 74 0 62 3 75 17 78 15 3 15 4 -1 20 -16 16 -16 19 -1 42
29 43 -20 92 -61 61z m50 -20 c6 -17 -2 -45 -14 -45 -35 0 -50 26 -28 48 16
16 35 15 42 -3z m-14 -155 c0 -60 -4 -100 -10 -100 -6 0 -10 40 -10 100 0 60
4 100 10 100 6 0 10 -40 10 -100z m-80 -30 c0 -5 -9 -10 -19 -10 -29 0 -36
-18 -16 -40 15 -17 60 -28 130 -34 45 -3 75 -49 59 -90 -10 -27 -24 -18 -18
12 7 37 -9 50 -82 63 -80 15 -114 34 -114 64 0 23 22 44 48 45 6 0 12 -4 12
-10z m188 -6 c12 -8 22 -20 22 -25 0 -14 -50 -59 -66 -59 -25 0 -15 15 17 27
36 14 37 49 1 47 -12 0 -22 5 -22 13 0 17 21 17 48 -3z m-155 -108 c12 -9 17
-24 15 -42 -3 -27 -4 -27 -21 -10 -14 14 -15 21 -6 32 8 9 8 14 1 14 -16 0
-24 -18 -17 -39 4 -12 25 -26 55 -36 54 -18 81 -45 73 -76 -8 -28 -19 -23 -18
8 0 23 -7 30 -50 46 -27 10 -58 26 -67 34 -21 19 -23 54 -6 71 15 15 19 15 41
-2z m47 -37 c0 -24 -4 -38 -10 -34 -5 3 -10 22 -10 41 0 19 5 34 10 34 6 0 10
-18 10 -41z m40 16 c10 -13 10 -19 -4 -33 -9 -10 -13 -22 -9 -27 5 -4 2 -5 -4
-1 -15 8 -18 76 -4 76 5 0 14 -7 21 -15z m-15 -115 c8 -13 -6 -40 -21 -40 -8
0 -14 5 -14 10 0 6 5 10 10 10 6 0 10 4 10 8 0 5 -7 9 -15 9 -8 0 -15 -6 -15
-14 0 -7 -4 -13 -10 -13 -15 0 -12 38 3 43 15 5 46 -3 52 -13z" fill="#2ADCFE"/>
<path d="M583 715 c2 -6 35 -8 80 -6 63 2 77 0 77 -12 0 -9 6 -18 13 -20 6 -3
2 -6 -11 -6 -13 -1 -20 3 -17 9 4 6 -11 10 -39 10 -24 0 -53 3 -63 7 -15 6
-16 4 -5 -9 8 -11 25 -15 50 -13 20 1 27 0 15 -2 -27 -5 -29 -16 -8 -33 9 -7
40 -10 85 -8 38 1 70 0 70 -3 0 -12 31 -19 56 -13 18 5 22 10 14 19 -5 6 -8
14 -5 17 3 2 -6 15 -20 28 -19 18 -28 21 -37 12 -9 -9 -7 -13 8 -18 21 -8 34
-23 34 -41 0 -20 -21 -15 -27 6 -4 16 -9 18 -30 10 -33 -12 -130 -12 -138 2
-5 7 15 9 59 8 73 -2 80 0 70 25 -5 12 -14 16 -30 12 -12 -3 -26 -2 -29 4 -4
6 15 10 51 10 49 0 62 -4 86 -27 15 -15 28 -22 28 -17 0 6 -10 20 -22 31 -21
19 -38 21 -171 25 -95 2 -146 0 -144 -7z m222 -35 c3 -5 -1 -10 -9 -10 -9 0
-16 5 -16 10 0 6 4 10 9 10 6 0 13 -4 16 -10z" fill="#2ADCFE"/>
<path d="M1180 723 c-121 -3 -137 -6 -157 -25 -13 -12 -23 -26 -23 -32 0 -5
13 2 28 17 24 23 37 27 85 27 31 0 57 -4 57 -8 0 -12 -49 -37 -57 -29 -3 4 -1
7 6 7 7 0 9 5 6 10 -11 17 -22 11 -21 -12 1 -20 6 -21 80 -22 74 -1 82 1 113
28 31 27 43 49 26 44 -5 -1 -69 -4 -143 -5z m115 -23 c-3 -5 -28 -10 -56 -10
-27 0 -49 -4 -49 -10 0 -5 -7 -10 -15 -10 -12 0 -12 3 2 20 13 15 30 20 71 20
33 0 51 -4 47 -10z" fill="#2ADCFE"/>
<path d="M1040 675 c-13 -14 -25 -33 -26 -42 -2 -9 -8 -20 -16 -24 -25 -16 3
-22 89 -20 61 2 92 7 103 17 12 12 12 14 -3 14 -9 0 -17 -4 -17 -10 0 -5 -18
-10 -41 -10 -29 0 -38 3 -33 13 6 10 4 10 -7 0 -15 -15 -69 -17 -69 -3 0 5 13
7 30 4 19 -4 30 -2 30 5 0 7 27 11 79 11 44 0 82 3 84 8 3 4 -33 6 -79 6 -57
-1 -84 2 -85 10 0 6 -4 1 -9 -11 -10 -26 -30 -31 -30 -8 0 8 11 22 25 31 14 9
22 20 19 25 -9 14 -19 11 -44 -16z" fill="#2ADCFE"/>
<path d="M730 606 c19 -18 200 -27 200 -10 0 8 -28 10 -90 7 -59 -3 -90 -1
-90 6 0 6 -8 11 -17 11 -15 0 -15 -2 -3 -14z" fill="#2ADCFE"/>
<path d="M185 393 l0 -173 90 0 c124 1 163 19 200 94 32 65 29 122 -8 177 -36
53 -70 67 -182 71 l-100 4 0 -173z m220 137 c99 -50 102 -221 4 -270 -29 -15
-59 -20 -124 -20 l-85 0 1 156 1 156 87 -4 c49 -2 99 -10 116 -18z" fill="#FFFFFF"/>
<path d="M220 393 l0 -143 66 0 c118 0 177 48 177 145 0 39 -6 60 -23 83 -28
37 -61 49 -152 54 l-68 4 0 -143z m183 101 c27 -20 44 -58 46 -106 0 -16 -4
-28 -10 -28 -7 0 -10 14 -7 35 2 19 1 35 -3 35 -4 0 -9 9 -12 19 -9 37 -55 55
-134 52 -24 -1 -31 -5 -27 -16 4 -8 1 -15 -4 -15 -16 0 -25 19 -18 36 9 23
133 14 169 -12z m-5 -40 c20 -22 23 -35 19 -67 -7 -50 -33 -77 -84 -86 -62
-12 -63 -10 -63 96 l0 96 52 -5 c41 -4 57 -11 76 -34z m-147 -66 c1 -40 0 -83
-1 -96 -1 -21 0 -22 20 -12 18 10 21 9 18 -2 -3 -7 -16 -13 -29 -13 -24 0 -24
2 -26 98 -2 58 1 97 7 97 6 0 10 -33 11 -72z m189 -48 c0 -15 -50 -60 -78 -71
-31 -12 -62 -11 -62 1 0 6 10 10 23 10 27 0 86 34 93 55 7 17 24 20 24 5z" fill="#FFFFFF"/>
<path d="M619 563 c-1 -2 -2 -6 -3 -10 -10 -43 -95 -257 -122 -305 l-15 -28
48 0 c46 0 49 2 58 33 l10 32 70 0 70 0 10 -33 c9 -30 12 -32 57 -32 48 0 57
7 38 26 -13 13 -121 273 -124 298 -2 16 -11 20 -49 21 -26 0 -48 -1 -48 -2z
m78 -25 c10 -12 63 -140 68 -163 1 -5 14 -36 29 -68 14 -32 24 -62 21 -67 -11
-17 -41 -2 -55 28 -14 29 -19 32 -62 32 -27 0 -48 4 -48 9 0 5 -3 17 -7 27 -6
15 -1 16 40 11 26 -4 47 -5 47 -4 0 2 -9 21 -19 43 -11 22 -23 52 -26 67 -12
44 -22 40 -45 -21 -13 -31 -27 -61 -32 -66 -12 -15 -10 -26 7 -26 8 0 15 -2
15 -4 0 -2 3 -11 6 -20 5 -12 0 -16 -20 -16 -18 0 -30 -8 -41 -30 -11 -21 -23
-30 -40 -30 l-25 0 19 48 c10 26 27 66 36 90 10 23 26 47 37 53 11 6 26 26 34
45 18 43 38 43 54 2 7 -18 22 -52 34 -75 18 -36 19 -46 8 -63 -11 -18 -11 -21
5 -18 12 2 21 -7 29 -32 6 -19 17 -36 24 -38 8 -3 11 1 7 9 -3 8 -20 48 -37
89 -17 41 -40 94 -51 117 -10 24 -19 47 -19 53 0 15 -26 12 -43 -4 -8 -8 -20
-28 -27 -45 -19 -47 -31 -37 -12 12 21 56 30 67 57 67 12 0 27 -6 32 -12z m2
-165 c1 -8 -12 -13 -34 -13 -40 0 -40 0 -18 59 l17 44 17 -39 c10 -21 18 -45
18 -51z" fill="#FFFFFF" />
<path d="M590 407 c0 -19 -18 -66 -46 -121 -15 -30 -13 -43 5 -31 6 3 11 14
11 24 0 21 16 37 45 44 18 4 18 5 -2 6 -27 1 -27 3 -9 40 9 17 11 32 5 42 -7
11 -9 11 -9 -4z" fill="#FFFFFF"/>
<path d="M670 320 c19 -13 30 -13 30 0 0 6 -10 10 -22 10 -19 0 -20 -2 -8 -10z" fill="#FFFFFF"/>
<path d="M1209 565 c0 0 -2 -9 -4 -20 -3 -22 -93 -242 -118 -291 -9 -17 -14
-33 -12 -35 2 -3 23 -3 47 -1 40 3 45 7 54 35 9 32 9 32 79 32 l70 0 10 -33
c9 -30 12 -32 57 -32 26 0 48 2 48 4 0 3 -9 20 -19 38 -27 46 -114 270 -113
289 0 12 -10 15 -49 15 -27 -1 -49 -1 -50 -1z m78 -27 c16 -27 71 -168 65
-168 -4 0 -2 -4 3 -8 10 -7 57 -113 52 -118 -1 -1 -11 -4 -22 -6 -14 -2 -24 6
-35 29 -14 30 -19 33 -64 33 -39 0 -47 3 -42 15 3 8 1 15 -4 15 -6 0 -10 5
-10 10 0 6 9 10 20 10 12 0 20 -6 18 -12 -2 -7 2 -13 7 -13 6 0 9 5 7 12 -2 7
5 13 14 13 11 0 14 5 9 18 -4 9 -16 41 -27 70 -21 55 -32 59 -43 15 -3 -15
-15 -45 -26 -67 -23 -48 -23 -46 -4 -46 8 0 15 -2 15 -4 0 -2 3 -11 6 -20 5
-12 0 -16 -19 -16 -18 0 -31 -10 -44 -33 -13 -21 -28 -33 -41 -33 -12 0 -22 3
-22 6 0 12 63 156 72 165 7 7 9 4 5 -10 -12 -43 -39 -110 -48 -122 -6 -6 -6
-14 -1 -17 13 -8 22 4 22 26 0 12 12 24 33 33 28 12 29 14 9 15 -20 0 -22 3
-16 23 5 12 8 33 8 47 0 14 8 30 17 37 9 7 22 26 29 43 7 18 19 30 27 28 13
-3 102 -206 103 -235 0 -14 19 -27 27 -19 3 3 1 11 -5 18 -6 7 -20 40 -33 73
-12 33 -30 79 -41 102 -10 24 -23 55 -29 70 -7 16 -13 23 -16 16 -3 -7 -10
-13 -17 -13 -7 0 -21 -18 -31 -40 -10 -22 -22 -40 -27 -40 -4 0 -8 2 -8 4 0 8
39 92 46 99 12 12 52 8 61 -5z m-3 -155 c7 -21 4 -23 -28 -23 -42 0 -41 0 -19
59 l17 45 12 -30 c6 -16 15 -39 18 -51z" fill="#FFFFFF"/>
<path d="M1305 330 c-3 -5 1 -10 9 -10 9 0 16 5 16 10 0 6 -4 10 -9 10 -6 0
-13 -4 -16 -10z" fill="#FFFFFF"/>
<path d="M1460 394 l0 -174 43 0 42 0 -1 111 c-1 60 -5 113 -8 116 -6 6 -10
-108 -6 -175 1 -28 -1 -32 -24 -32 l-26 0 0 155 c0 154 0 155 23 155 16 0 37
-21 77 -76 30 -42 67 -92 83 -111 l27 -36 0 79 c0 54 3 75 10 68 6 -6 10 -41
8 -80 -3 -65 -4 -69 -27 -69 -16 0 -29 10 -40 30 -59 105 -116 175 -145 175
-3 0 -6 -63 -5 -140 0 -87 4 -140 10 -140 6 0 10 10 9 23 -1 12 -1 27 0 32 1
6 1 42 0 81 -1 66 1 72 21 77 23 6 52 -20 65 -58 4 -11 16 -32 27 -47 11 -15
18 -30 15 -33 -5 -6 -63 67 -71 89 -2 6 -7 8 -11 5 -3 -3 24 -48 62 -100 61
-84 72 -94 103 -97 l34 -3 1 173 0 173 -40 1 -41 1 3 -106 c2 -86 0 -102 -9
-86 -10 16 -57 80 -133 181 -1 1 -18 4 -38 7 l-38 6 0 -175z m280 1 c0 -154 0
-155 -22 -155 -14 0 -34 14 -51 36 -38 47 -29 53 13 9 19 -19 37 -35 40 -35 3
0 5 63 5 140 -1 81 -5 139 -11 138 -5 0 -8 -9 -6 -20 2 -10 -2 -18 -7 -18 -6
0 -11 14 -11 30 0 25 4 30 25 30 l25 0 0 -155z m-207 90 c1 -5 -5 -11 -14 -13
-9 -2 -16 4 -16 13 0 17 27 17 30 0z m177 -190 c0 -9 -6 -12 -15 -9 -8 4 -15
10 -15 15 0 5 7 9 15 9 8 0 15 -7 15 -15z" fill="#FFFFFF"/>
<path d="M1802 463 c-1 -133 9 -170 52 -210 32 -30 42 -33 96 -33 52 0 64 4
94 31 41 35 44 50 48 205 l3 111 -40 0 -40 0 3 -106 c4 -137 -19 -183 -81
-167 -39 9 -46 32 -48 158 l-1 115 -42 -1 -43 -1 -1 -102z m66 -18 c-2 -58 0
-105 5 -105 4 0 7 -7 7 -15 0 -8 9 -20 20 -27 11 -7 20 -19 20 -26 0 -23 -49
21 -59 53 -5 17 -9 59 -9 95 -1 110 -2 124 -8 118 -3 -3 -6 -51 -6 -106 -1
-87 2 -105 21 -136 13 -20 34 -39 47 -42 13 -3 24 -10 24 -16 0 -16 -44 3 -75
33 -30 29 -30 31 -34 154 l-3 125 27 0 26 0 -3 -105z m211 -21 l-4 -126 -37
-34 c-27 -24 -47 -34 -70 -34 -27 1 -30 2 -15 11 9 5 21 7 27 4 5 -3 25 11 44
30 33 33 36 41 37 95 1 33 1 83 2 110 1 28 -3 49 -8 48 -5 -2 -9 -43 -8 -93 2
-96 -14 -151 -45 -162 -9 -3 -24 -7 -32 -10 -30 -12 -40 -11 -40 3 0 8 10 14
25 14 14 0 37 11 50 25 24 23 25 31 25 135 l0 110 26 0 26 0 -3 -126z" fill="#FFFFFF"/>
<path d="M2145 393 l-1 -173 43 0 42 0 -4 56 c-3 54 -3 55 22 52 20 -2 32 -15
52 -55 l26 -52 53 0 c53 -1 56 2 30 34 -5 6 -20 27 -33 48 l-25 39 24 29 c33
39 40 79 22 122 -22 54 -48 65 -156 69 l-95 3 0 -172z m105 146 c0 -6 -15 -9
-36 -7 l-37 3 0 -139 c0 -78 4 -141 9 -143 5 -2 8 53 7 132 l-2 135 54 0 c69
0 105 -14 105 -40 0 -11 7 -20 15 -20 22 0 18 13 -13 43 -19 19 -39 27 -62 27
-26 0 -31 3 -22 12 16 16 87 -6 107 -35 8 -12 15 -39 15 -60 0 -31 -7 -45 -30
-67 l-31 -29 24 -38 c50 -79 50 -81 15 -74 -25 5 -39 19 -65 61 -18 30 -30 56
-27 59 7 7 39 -35 59 -77 9 -18 20 -30 25 -27 5 3 -7 29 -26 57 -35 51 -35 52
-14 60 28 10 45 28 52 56 9 32 -6 27 -18 -7 -13 -33 -77 -62 -97 -42 -8 8 -3
11 19 11 53 0 85 55 53 89 -15 16 -32 21 -68 21 l-49 0 -4 -55 c-3 -47 0 -55
15 -55 9 0 17 -4 17 -9 0 -5 -8 -12 -17 -15 -11 -3 -9 -4 6 -3 13 1 26 -3 28
-9 2 -7 -6 -10 -22 -7 -24 5 -25 4 -25 -49 0 -61 -3 -68 -30 -61 -17 5 -19 17
-19 159 l-1 154 45 0 c25 0 45 -5 45 -11z m61 -59 c22 -12 25 -42 7 -58 -7 -5
-31 -12 -53 -14 l-40 -3 -3 43 -3 42 36 0 c20 0 45 -5 56 -10z" fill="#FFFFFF"/>
<path d="M2494 552 c-17 -11 -36 -34 -43 -51 -27 -63 10 -115 104 -145 48 -15
56 -21 53 -39 -2 -17 -11 -23 -36 -25 -18 -2 -40 2 -48 9 -8 6 -17 9 -20 6 -3
-3 3 -12 15 -19 12 -7 21 -16 21 -20 0 -15 -20 -8 -37 11 -15 18 -33 20 -33 3
0 -11 59 -34 70 -27 5 3 10 1 10 -4 0 -6 5 -11 12 -11 9 0 9 3 0 12 -10 10 -6
15 20 24 61 20 48 75 -22 94 -56 15 -100 57 -100 96 0 17 3 33 6 37 12 11 44
-18 44 -40 0 -17 11 -26 52 -41 29 -11 54 -24 56 -30 2 -6 -20 -2 -48 9 -52
20 -82 41 -79 56 4 24 -2 36 -12 26 -8 -8 -6 -19 5 -41 12 -23 31 -36 73 -52
32 -12 63 -26 70 -32 30 -24 1 -104 -33 -91 -9 3 -14 -1 -14 -12 0 -9 3 -15 8
-13 52 26 61 33 66 61 4 19 1 39 -9 53 -18 27 -19 34 -5 34 6 0 18 -15 26 -34
15 -30 15 -36 -1 -69 -19 -40 -53 -58 -108 -55 -39 1 -97 32 -104 55 -3 7 7
15 21 19 28 7 36 34 11 34 -8 0 -15 -5 -15 -10 0 -6 -12 -15 -27 -21 l-27 -10
36 -36 c89 -88 238 -46 238 67 0 40 -32 72 -95 95 -66 24 -82 39 -65 59 18 22
56 20 79 -5 l19 -21 31 23 c17 12 31 25 30 28 0 3 -14 17 -31 30 -42 34 -121
40 -164 13z m86 -2 c0 -5 -10 -10 -23 -10 -13 0 -32 -7 -43 -15 -23 -17 -34
-19 -34 -5 0 12 56 39 83 40 9 0 17 -4 17 -10z m61 -19 c20 -16 21 -21 10 -35
-13 -15 -16 -15 -39 0 -17 11 -37 15 -63 11 -49 -6 -51 8 -3 17 25 5 43 3 59
-8 28 -19 35 -20 35 -6 0 6 -11 15 -25 20 -27 10 -33 20 -11 20 8 0 24 -8 37
-19z" fill="#FFFFFF"/>
<path d="M2725 393 l0 -173 119 0 c118 0 118 0 112 23 -3 12 -6 30 -6 40 0 14
-10 17 -70 17 l-70 0 0 30 0 30 60 0 c50 0 60 3 60 18 0 9 3 27 6 38 6 21 3
22 -60 17 l-66 -6 0 32 0 31 70 0 c60 0 70 3 70 18 0 9 3 26 6 37 5 19 0 20
-113 20 l-118 0 0 -172z m115 147 c0 -5 -18 -10 -40 -10 l-40 0 0 -140 0 -140
40 0 c22 0 40 -3 40 -7 0 -5 -22 -6 -49 -5 l-49 4 -1 144 c-1 80 1 149 4 155
8 12 95 12 95 -1z m100 -16 l0 -26 -74 4 -74 4 2 -37 c1 -21 5 -41 8 -44 3 -3
30 -7 59 -8 47 -2 54 -5 54 -22 0 -28 -54 -35 -61 -8 -4 15 -13 18 -39 15
l-33 -4 -3 52 c-2 29 -2 56 1 61 3 4 35 8 70 7 36 -1 65 3 65 8 0 5 -12 8 -27
6 -16 -2 -28 2 -28 7 0 6 18 11 40 11 36 0 40 -2 40 -26z m-100 -143 c0 -5
-10 -11 -22 -13 -19 -2 -22 -10 -23 -45 l-1 -43 73 0 c66 0 73 -2 73 -19 0
-27 -9 -30 -55 -21 l-40 8 38 1 c20 0 37 5 37 9 0 4 -31 6 -69 4 -78 -5 -79
-5 -73 79 4 47 5 49 33 49 16 0 29 -4 29 -9z" fill="#FFFFFF"/>
<path d="M2875 401 c-6 -11 9 -23 19 -14 9 9 7 23 -3 23 -6 0 -12 -4 -16 -9z" fill="#FFFFFF" />
<path d="M932 210 c-10 -17 -9 -23 8 -40 26 -26 39 -19 32 16 -3 20 -2 25 7
19 7 -4 10 -14 7 -22 -3 -8 -1 -11 4 -8 6 3 10 1 10 -4 0 -6 -5 -11 -12 -11
-6 0 -8 -3 -5 -6 4 -4 13 -1 22 6 17 14 20 56 5 65 -7 4 -9 -3 -5 -22 3 -15 2
-21 -1 -13 -8 18 -34 40 -49 40 -5 0 -16 -9 -23 -20z m18 -22 c0 -18 -2 -20
-9 -8 -6 8 -7 18 -5 22 9 14 14 9 14 -14z" fill="#2ADCFE"/>
<path d="M944 135 c3 -9 6 -28 6 -41 0 -37 20 -29 21 9 0 31 1 31 10 8 7 -17
13 -21 20 -14 8 8 6 16 -8 30 -26 25 -58 30 -49 8z" fill="#2ADCFE"/>
<path d="M920 120 c-12 -7 -12 -12 -3 -21 15 -15 26 -7 21 15 -2 11 -7 13 -18
6z" fill="#2ADCFE"/>
</g>
</svg>
