<svg width="16" height="16" viewBox="0 0 16 16" fill="none" xmlns="http://www.w3.org/2000/svg">
<g clip-path="url(#clip0_10405_73324)">
<path d="M12.1525 8.35525L7.977 7.66825L8.576 7.24175L9.57875 7.3805L10.5802 7.24175L12.1525 8.35525ZM9.57875 0.4645C9.77783 0.464434 9.97497 0.503606 10.1589 0.579774C10.3428 0.655943 10.5099 0.767617 10.6507 0.90841C10.7914 1.0492 10.9031 1.21636 10.9792 1.40031C11.0553 1.58427 11.0944 1.78142 11.0942 1.9805C11.0942 2.818 10.5605 3.4965 9.57875 3.4965C9.37735 3.50016 9.17724 3.46365 8.99011 3.3891C8.80297 3.31456 8.63257 3.20348 8.48885 3.06234C8.34512 2.92121 8.23096 2.75285 8.15303 2.5671C8.0751 2.38135 8.03497 2.18193 8.03497 1.9805C8.03497 1.77907 8.0751 1.57965 8.15303 1.3939C8.23096 1.20815 8.34512 1.03979 8.48885 0.898659C8.63257 0.757523 8.80297 0.646439 8.99011 0.571895C9.17724 0.497351 9.37735 0.460842 9.57875 0.4645ZM9.956 11.421V15.0848C9.956 15.3043 10.0432 15.5148 10.1984 15.6701C10.3537 15.8253 10.5642 15.9125 10.7837 15.9125C11.0033 15.9125 11.2138 15.8253 11.3691 15.6701C11.5243 15.5148 11.6115 15.3043 11.6115 15.0848V11.421C11.6062 11.205 11.5167 10.9996 11.362 10.8487C11.2073 10.6978 10.9998 10.6133 10.7837 10.6133C10.5677 10.6133 10.3602 10.6978 10.2055 10.8487C10.0508 10.9996 9.96131 11.205 9.956 11.421ZM15.0265 13.5127C15.0264 13.64 14.9759 13.7621 14.886 13.8522C14.796 13.9423 14.674 13.993 14.5468 13.9932H12.0087V11.5942H13.1065V9.19675C13.1065 8.93275 13.3218 8.71725 13.586 8.71725H14.5468C14.8108 8.71725 15.0265 8.9325 15.0265 9.19675V13.5127ZM9.56 13.993H4.63275C4.56967 13.993 4.50722 13.9806 4.44895 13.9564C4.39068 13.9323 4.33774 13.8969 4.29316 13.8522C4.24858 13.8076 4.21324 13.7546 4.18914 13.6963C4.16505 13.638 4.15268 13.5756 4.15275 13.5125V9.1965C4.15288 9.06928 4.20351 8.94732 4.29352 8.85741C4.38352 8.7675 4.50553 8.717 4.63275 8.717H5.593C5.85775 8.717 6.073 8.93225 6.073 9.1965V11.594H9.56V13.993ZM6.9655 8.81675C6.92989 9.03335 6.98171 9.25523 7.10959 9.43364C7.23747 9.61205 7.43094 9.7324 7.6475 9.76825L11.2622 10.364C11.4788 10.3994 11.7006 10.3474 11.8789 10.2194C12.0572 10.0915 12.1774 9.89802 12.2133 9.6815C12.231 9.57428 12.2274 9.46462 12.2027 9.35879C12.178 9.25296 12.1327 9.15303 12.0694 9.06473C12.006 8.97643 11.9259 8.90148 11.8336 8.84417C11.7412 8.78686 11.6385 8.74832 11.5312 8.73075L7.9165 8.1345C7.69995 8.09911 7.4782 8.15106 7.29992 8.27897C7.12163 8.40687 7.00136 8.60028 6.9655 8.81675ZM2.88875 4.27925C1.70925 4.27925 0.75 3.32 0.75 2.13975C0.75 0.9595 1.70925 0 2.88875 0C4.06825 0 5.02875 0.95975 5.02875 2.13975C5.02875 3.32 4.06825 4.27925 2.88875 4.27925ZM2.88875 3.74975C3.31568 3.74922 3.72497 3.57941 4.02687 3.27755C4.32878 2.97569 4.49865 2.56643 4.49925 2.1395C4.49925 1.25225 3.776 0.52925 2.88875 0.52925C2.00075 0.52925 1.27925 1.25225 1.27925 2.1395C1.27951 2.56635 1.44915 2.97566 1.75091 3.27756C2.05267 3.57946 2.4619 3.74929 2.88875 3.74975Z" fill="#E8344A"/>
<path d="M2.89987 2.41909C2.87535 2.43028 2.8484 2.4351 2.82152 2.43309C2.79464 2.43108 2.76871 2.42231 2.74612 2.40759C2.7269 2.3953 2.71053 2.37903 2.69811 2.35989C2.6857 2.34074 2.67752 2.31916 2.67412 2.29659L2.67188 1.05309C2.67351 1.01153 2.69118 0.972204 2.72117 0.943372C2.75116 0.914541 2.79115 0.898438 2.83275 0.898438C2.87435 0.898438 2.91434 0.914541 2.94433 0.943372C2.97432 0.972204 2.99199 1.01153 2.99362 1.05309V2.01784L3.81837 1.62934C3.83743 1.62017 3.85812 1.61487 3.87923 1.61375C3.90035 1.61262 3.92148 1.61569 3.9414 1.62278C3.96133 1.62987 3.97965 1.64084 3.99531 1.65505C4.01096 1.66927 4.02365 1.68645 4.03262 1.70559C4.05077 1.7442 4.05288 1.78841 4.0385 1.82857C4.02411 1.86872 3.9944 1.90154 3.95587 1.91984L2.89987 2.41884V2.41909ZM9.57887 4.69934L11.5441 4.37934V5.76084L12.5144 6.49059C12.6076 6.58459 12.5699 6.69159 12.5479 6.72184C12.5215 6.75692 12.4823 6.78014 12.4389 6.78642C12.3955 6.7927 12.3513 6.78152 12.3161 6.75534L11.0916 5.82984C10.9697 5.7474 10.8202 5.71605 10.6754 5.74255C10.5306 5.76904 10.4019 5.85126 10.317 5.97155C10.2321 6.09184 10.1978 6.24062 10.2214 6.38594C10.245 6.53127 10.3246 6.66156 10.4431 6.74884L12.5354 8.21834C12.6326 8.28684 12.7709 8.33359 12.9086 8.33359C13.0261 8.33359 13.1644 8.28484 13.2674 8.21184C13.4869 8.05584 13.5676 7.77909 13.4931 7.52409L12.7161 5.22809C12.5086 4.65759 11.9854 3.98609 11.1994 3.98609H7.95813C7.17238 3.98609 6.64912 4.65759 6.44137 5.22809L5.66437 7.52409C5.58962 7.77909 5.67088 8.05609 5.89038 8.21184C5.99263 8.28484 6.13137 8.33359 6.24837 8.33359C6.38687 8.33359 6.52538 8.28709 6.62238 8.21834L8.71463 6.74884C8.83319 6.66156 8.9128 6.53127 8.93637 6.38594C8.95995 6.24062 8.92561 6.09184 8.84073 5.97155C8.75584 5.85126 8.62718 5.76904 8.48236 5.74255C8.33754 5.71605 8.1881 5.7474 8.06612 5.82984L6.84088 6.75534C6.80572 6.78143 6.76167 6.79255 6.71834 6.78627C6.67502 6.78 6.63593 6.75684 6.60962 6.72184C6.58741 6.68547 6.57855 6.64249 6.58458 6.60029C6.5906 6.55809 6.61112 6.51931 6.64262 6.49059C6.64262 6.49059 7.30062 5.99634 7.61337 5.76084V4.37934L9.57887 4.69959V4.69934Z" fill="#E8344A"/>
</g>
<defs>
<clipPath id="clip0_10405_73324">
<rect width="16" height="16" fill="white"/>
</clipPath>
</defs>
</svg>
