<svg width="24" height="24" viewBox="0 0 24 24" fill="none" xmlns="http://www.w3.org/2000/svg">
<path d="M22.102 11.1469V12.8779H1.904V6.67188H0V19.0859H1.904V16.2489H22.102V19.3229H24V11.1449L22.102 11.1469Z" fill="black"/>
<path d="M8.71144 11.1619C8.71144 11.7259 8.25444 12.1839 7.68944 12.1839H3.79544C3.66115 12.1841 3.52814 12.1579 3.40403 12.1066C3.27991 12.0554 3.16714 11.9801 3.07219 11.8851C2.97723 11.7902 2.90196 11.6774 2.8507 11.5533C2.79943 11.4292 2.77318 11.2962 2.77344 11.1619V11.1599C2.77344 10.5959 3.23044 10.1379 3.79544 10.1379H7.68944C8.25344 10.1379 8.71144 10.5949 8.71144 11.1599V11.1619ZM19.7454 7.16087H17.3754V4.79688H15.6954V7.16187H13.3304V8.84188H15.6944V11.2069H17.3744V8.84188H19.7444L19.7454 7.16087Z" fill="black"/>
</svg>
